<svg width="103" height="111" viewBox="0 0 103 111" fill="none" xmlns="http://www.w3.org/2000/svg">
<path d="M79.2066 76.2475C79.7486 75.7055 102.014 56.2154 102.014 56.2154L98.2197 54.5895C96.0518 53.5271 96.6154 52.0963 97.1357 50.8172C97.6561 49.1695 101.493 36.2268 101.493 36.2268C101.493 36.2268 91.1521 38.3947 88.9842 38.9367C87.3582 39.457 86.8162 38.3947 86.2742 37.3107C85.7322 36.2268 83.0223 30.2865 83.0223 30.2865C83.0223 30.2865 71.6187 43.2727 71.0768 43.793C68.9088 45.4189 66.7191 43.793 67.2611 41.625C67.2611 39.457 73.2447 13.5281 73.2447 13.5281C73.2447 13.5281 66.7191 17.3004 64.5512 18.3844C62.9252 19.4684 61.8195 19.4684 60.7355 17.3004C59.6299 15.6744 51.4783 0 51.4783 0C51.4783 0 43.3484 15.6744 42.2645 17.3004C41.1805 19.4684 40.0965 19.4684 38.4488 18.3844C36.2809 17.3004 29.7553 13.5281 29.7553 13.5281C29.7553 13.5281 35.7389 39.457 35.7389 41.625C36.2809 43.793 34.1129 45.4189 31.9232 43.793C31.3812 43.251 19.9777 30.2865 19.9777 30.2865C19.9777 30.2865 17.2678 36.2051 16.7258 37.2891C16.1838 38.373 15.6418 39.4354 14.0158 38.915C11.8262 38.373 1.50664 36.2051 1.50664 36.2051C1.50664 36.2051 5.32227 49.1479 5.86426 50.7955C6.38457 52.0963 6.94824 53.5055 4.78027 54.5678L0.986328 56.2154C0.986328 56.2154 23.2297 75.7055 23.7934 76.2475C24.899 77.3315 25.9613 77.8734 24.899 81.1254C23.7934 84.3773 22.7094 88.735 22.7094 88.735C22.7094 88.735 43.3484 84.3773 45.5381 83.8354C47.4242 83.6402 49.5055 84.3773 49.5055 86.5453C49.5055 88.7133 48.248 111 48.248 111H54.752C54.752 111 53.4945 88.735 53.4945 86.5453C53.4945 84.3557 55.5541 83.6402 57.4836 83.8354C59.6516 84.3773 80.2906 88.735 80.2906 88.735C80.2906 88.735 79.2066 84.3773 78.1227 81.1254C77.0387 77.8734 78.1227 77.3315 79.2066 76.2475Z" fill="url(#paint0_linear_47_1514)"/>
<defs>
<linearGradient id="paint0_linear_47_1514" x1="51.5" y1="0" x2="51.5" y2="111" gradientUnits="userSpaceOnUse">
<stop offset="0.325" stop-color="#2D85A8"/>
<stop offset="0.96" stop-color="#9D5BE2"/>
</linearGradient>
</defs>
</svg>
